HIERARCHY
ROOT pelvis
{
  OFFSET 0 100 0
  CHANNELS 6 Xposition Yposition Zposition Zrotation Xrotation Yrotation
  JOINT pelvis_right_femur
  {
    OFFSET -10.78128 -3.44521 -0.5502486
    CHANNELS 3 Zrotation Xrotation Yrotation
    JOINT right_femur_tibia
    {
      OFFSET -0.8047443 -44.0398 -0.1307829
      CHANNELS 3 Zrotation Xrotation Yrotation
      JOINT right_tibia_foot
      {
        OFFSET 3.006224 -47.83518 -5
        CHANNELS 3 Zrotation Xrotation Yrotation
        End Site
        {
          OFFSET 0 -5 15
        }
      }
    }
  }
  JOINT pelvis_left_femur
  {
    OFFSET 10.78128 -3.44521 -0.5502486
    CHANNELS 3 Zrotation Xrotation Yrotation
    JOINT left_femur_tibia
    {
      OFFSET 0.8047443 -44.0398 -0.1307829
      CHANNELS 3 Zrotation Xrotation Yrotation
      JOINT left_tibia_foot
      {
        OFFSET -4.370144 -48.10324 -4.275266
        CHANNELS 3 Zrotation Xrotation Yrotation
        End Site
        {
          OFFSET 0 -5 15
        }
      }
    }
  }
  JOINT pelvis_spine1
  {
    OFFSET 0 6.468898 -3.129235
    CHANNELS 3 Zrotation Xrotation Yrotation
    JOINT spine1
    {
      OFFSET 0 23.15396 4.99043
      CHANNELS 3 Zrotation Xrotation Yrotation
      JOINT spine2
      {
        OFFSET 0 20.79997 -5.064912
        CHANNELS 3 Zrotation Xrotation Yrotation
        JOINT neck
        {
          OFFSET 0 14.38658 9.616178
          CHANNELS 3 Zrotation Xrotation Yrotation
          End Site
          {
            OFFSET 0 20 0
          }
        }
      }
      JOINT right_manubrium
      {
        OFFSET -5.722621 16.35077 3.967754
        CHANNELS 3 Zrotation Xrotation Yrotation
        JOINT right_clavicle
        {
          OFFSET -13.16364 1.694482 -4.693211
          CHANNELS 3 Zrotation Xrotation Yrotation
          JOINT right_humerus
          {
            OFFSET -28.5034 -0.3100689 -2.792744
            CHANNELS 3 Zrotation Xrotation Yrotation
            JOINT right_radius
            {
              OFFSET -25.15693 0.02248979 -1.271978
              CHANNELS 3 Zrotation Xrotation Yrotation
              End Site
              {
                OFFSET -15 0 0
              }
            }
          }
        }
      }
      JOINT left_manubrium
      {
        OFFSET 5.722621 16.35077 3.967754
        CHANNELS 3 Zrotation Xrotation Yrotation
        JOINT left_clavicle
        {
          OFFSET 13.16364 1.694482 -4.693211
          CHANNELS 3 Zrotation Xrotation Yrotation
          JOINT left_humerus
          {
            OFFSET 29.39168 -1.063119 -2.237045
            CHANNELS 3 Zrotation Xrotation Yrotation
            JOINT left_radius
            {
              OFFSET 24.59957 -0.9528479 0.9047498
              CHANNELS 3 Zrotation Xrotation Yrotation
              End Site
              {
                OFFSET 15 -0 -0
              }
            }
          }
        }
      }
    }
  }
}
MOTION
Frames: 17
Frame Time: 0.0416666666667
49.71582 104.3954 274.6094 3.903332 -10.01097 3.422671 -2.389453 11.19185 4.972842 -0 49.1244 -0 6.254611 -8.42841 -4.336423 -6.384791 -6.65625 -9.909814 -0 24.17504 -0 -7.135848 -9.830836 17.45259 -2.616494 -1.372183 7.114735 -2.045155 8.843012 -2.810472 2.107011 23.15903 5.820501 1.139337 -14.84383 8.488643 1.496189 -18.0626 9.921606 85.5952 21.33467 -11.4522 -0 0 20.6024 -24.5726 13.64798 11.92802 4.227928 -13.3979 -3.723498 -90.48831 25.3161 20.51007 0 0 -9.947589 -3.86293 6.349628 17.59651
50.83988 105.481 280.5584 3.888356 -10.21674 4.6381 -2.123465 4.923543 4.038026 -0 50.36206 -0 5.478222 -8.14496 -5.447933 -6.621884 -1.170494 -10.27188 -0 22.68271 -0 -6.971566 -11.20222 16.75903 -2.628787 -0.9521771 5.856443 -1.757478 8.733919 -3.554689 2.025924 23.5424 5.957613 0.8999092 -14.59194 8.801605 1.582454 -17.03348 9.676892 87.00073 21.75137 -13.12597 -0 0 18.6272 -23.67623 13.66541 11.35415 4.31817 -14.35918 -4.055265 -88.42616 25.76901 16.93128 0 0 -11.77727 -3.143233 6.817282 16.70033
51.88929 106.257 286.2048 3.837723 -10.12837 5.984909 -1.913432 -1.526637 3.300776 -0 48.16452 -0 4.606899 -8.0263 -6.389565 -6.599069 4.054971 -10.54243 -0 20.71051 -0 -6.894882 -12.57898 15.97827 -2.620508 -0.5930799 4.569108 -1.399627 8.518445 -4.44968 2.033172 23.85859 6.030629 0.7147782 -14.35719 9.096921 1.373304 -15.99433 9.336178 88.38724 22.11401 -14.8561 -0 0 16.85688 -22.76278 13.61214 10.80635 4.575496 -15.42428 -4.381772 -86.2888 26.09967 13.02098 0 0 -14.01809 -2.320386 7.353367 15.60705
52.87033 106.5381 291.7201 3.826164 -9.770912 7.359694 -1.905695 -7.578164 2.761692 -0 42.94047 -0 3.636829 -8.030654 -7.187047 -6.466678 8.826007 -10.75689 -0 18.77616 -0 -6.876347 -14.00241 15.1468 -2.684297 -0.3461154 3.426019 -1.005962 8.201629 -5.366267 2.156793 24.06023 5.992885 0.6065766 -14.19706 9.328551 0.9383232 -14.93656 8.937244 89.64638 22.39405 -16.59208 -0 0 15.18386 -21.84813 13.47943 10.23114 4.979059 -16.54083 -4.646621 -84.18694 26.29421 9.02209 0 0 -16.52278 -1.424929 7.944795 14.35108
53.7822 106.2501 297.2724 3.865272 -9.224967 8.624729 -2.083377 -12.84322 2.353901 -0 35.65161 -0 2.570805 -8.177332 -7.872187 -6.312651 13.04761 -10.91288 -0 17.33252 -0 -6.906599 -15.44277 14.31858 -2.837988 -0.2067561 2.529559 -0.6078732 7.815223 -6.181558 2.379521 24.14178 5.838183 0.5726529 -14.14479 9.468503 0.3971342 -13.87437 8.542903 90.72452 22.59871 -18.27428 -0 0 13.48999 -20.92261 13.27824 9.580736 5.472241 -17.66515 -4.806812 -82.22202 26.35887 5.161359 0 0 -19.11552 -0.4816483 8.57159 12.98342
54.61669 105.471 302.9653 3.905744 -8.628846 9.672431 -2.2285 -17.05232 1.988266 -0 27.94159 -0 1.432626 -8.539343 -8.460844 -6.145014 16.67661 -10.98431 -0 16.82125 -0 -7.013904 -16.72599 13.57639 -2.998135 -0.1319616 1.913678 -0.2330645 7.419065 -6.767944 2.632274 24.14655 5.60662 0.5825077 -14.21091 9.508664 -0.07525994 -12.85798 8.239628 91.6261 22.76552 -19.8127 -0 0 11.66185 -19.9449 13.03962 8.814503 5.950766 -18.73801 -4.82602 -80.52133 26.3172 1.703034 0 0 -21.54605 0.4821522 9.203905 11.58911
55.35985 104.3959 308.8548 3.891617 -8.108989 10.45643 -2.123377 -20.03668 1.678723 -0 21.27166 -0 0.2603026 -9.102504 -8.953847 -5.926298 19.67464 -10.96377 -0 17.56543 -0 -7.22258 -17.63399 13.00045 -3.072504 -0.09946486 1.548454 0.102175 7.06822 -7.071069 2.85719 24.12736 5.338736 0.6088058 -14.38613 9.453373 -0.3658723 -11.94224 8.068251 92.37324 22.92693 -21.12219 -0 0 9.679252 -18.89304 12.78771 7.93269 6.329752 -19.67948 -4.693896 -79.19917 26.21708 -1.119497 0 0 -23.57942 1.430097 9.814254 10.25719
56.00373 103.2679 315.0047 3.757178 -7.767801 11.00935 -1.610457 -21.64425 1.627398 -0 16.75205 -0 -0.8781949 -9.630129 -9.315656 -5.555303 21.93525 -10.8924 -0 19.82115 -0 -7.543541 -17.87182 12.68431 -2.99123 -0.1474346 1.315674 0.3913243 6.805315 -7.166731 3.038182 24.13916 5.053847 0.643508 -14.63598 9.316099 -0.4818883 -11.18314 7.984522 92.98395 23.09251 -22.10877 -0 0 7.703204 -17.79698 12.53015 7.012664 6.565304 -20.34526 -4.437033 -78.39071 26.13356 -3.062942 0 0 -24.97012 2.297577 10.37733 9.09166
56.55693 102.3304 321.483 3.469439 -7.685993 11.41799 -0.6266831 -21.75635 2.019362 -0 14.98681 -0 -1.917899 -9.889111 -9.498399 -4.956296 23.29144 -10.81467 -0 23.74453 -0 -7.954437 -17.21949 12.72659 -2.722443 -0.3055207 1.106664 0.6299294 6.664456 -7.159749 3.178713 24.22914 4.761431 0.6873481 -14.91834 9.114388 -0.4753107 -10.63792 7.927821 93.45114 23.2636 -22.67931 -0 0 5.953383 -16.71351 12.26692 6.156353 6.633179 -20.60463 -4.101895 -78.20511 26.13893 -3.936588 0 0 -25.51022 3.012973 10.87642 8.18854
57.0499 101.7667 328.2664 3.109344 -7.922513 11.70943 0.656916 -20.36659 2.756001 -0 15.39134 -0 -2.85756 -9.969327 -9.495311 -4.251478 23.43987 -10.69653 -0 29.23459 -0 -8.333018 -15.80658 13.22014 -2.325358 -0.4803311 0.9615693 0.8108412 6.677905 -7.075377 3.284524 24.42279 4.473816 0.7411582 -15.19407 8.871237 -0.3887414 -10.38143 7.893431 93.69045 23.44814 -22.74459 -0 0 4.617425 -15.7264 11.9867 5.453213 6.520678 -20.45514 -3.755751 -78.65417 26.26256 -3.722299 0 0 -25.11339 3.518372 11.30968 7.602731
57.52635 101.663 335.1827 2.813366 -8.515926 11.78501 1.929169 -17.53825 3.567941 -0 16.69838 -0 -3.73201 -10.15124 -9.332253 -3.682362 21.98821 -10.45146 -0 35.97286 -0 -8.511463 -13.97426 14.23113 -1.91472 -0.5046423 1.00917 0.9226788 6.872975 -6.883874 3.361075 24.73072 4.206165 0.8056487 -15.42765 8.61264 -0.2552297 -10.49881 7.913468 93.5744 23.65506 -22.21358 -0 0 3.859373 -14.93863 11.67288 4.986721 6.226093 -19.97467 -3.4726 -79.70532 26.49054 -2.496113 0 0 -23.76373 3.765603 11.68081 7.363884
58.01365 102.02 342.0101 2.661681 -9.372822 11.54549 2.941021 -13.49548 4.234721 -0 17.90328 -0 -4.536803 -10.57568 -9.032539 -3.370796 18.85222 -10.07071 -0 43.11962 -0 -8.433718 -12.05717 15.65524 -1.597535 -0.3087897 1.313075 0.9534234 7.210228 -6.559254 3.418617 25.123 3.965066 0.8823802 -15.61064 8.357041 -0.1039082 -10.98899 8.006752 93.07299 23.87341 -21.09629 -0 0 3.714398 -14.42332 11.32015 4.80166 5.798847 -19.28667 -3.278514 -81.26528 26.75707 -0.4345669 0 0 -21.59901 3.758814 11.99495 7.437893
58.51428 102.736 348.577 2.707601 -10.26374 11.03977 3.512317 -8.599294 4.609143 -0 18.21855 -0 -5.2191 -11.23864 -8.599776 -3.32297 14.19354 -9.642284 -0 49.19367 -0 -8.112799 -10.39556 17.24069 -1.481364 0.0801036 1.874574 0.8870853 7.580868 -6.081296 3.471181 25.52972 3.751728 0.9735621 -15.75793 8.118397 0.02960237 -11.77999 8.174742 92.24045 24.07218 -19.4802 -0 0 4.133061 -14.24742 10.92825 4.929818 5.342547 -18.55304 -3.161448 -83.17706 26.96348 2.202022 0 0 -18.88674 3.545814 12.25539 7.73599
59.02736 103.6183 354.7941 2.921685 -10.98894 10.38857 3.638539 -3.23954 4.654818 -0 17.35376 -0 -5.752811 -12.07771 -8.028128 -3.430044 8.378874 -9.268871 -0 52.92012 -0 -7.600932 -9.175048 18.7857 -1.577375 0.5791 2.62975 0.7238699 7.883073 -5.45702 3.511395 25.88478 3.577691 1.071916 -15.89328 7.904772 0.1006497 -12.80012 8.399625 91.14933 24.21989 -17.46245 -0 0 5.075274 -14.44817 10.50327 5.397693 4.960319 -17.86313 -3.087197 -85.29094 27.02958 5.195009 0 0 -15.88588 3.193436 12.46569 8.163745
59.56209 104.4034 360.6721 3.128899 -11.37842 9.629673 3.488921 2.121438 4.371978 -0 15.54259 -0 -6.165513 -12.99785 -7.297117 -3.440688 2.040792 -9.013862 -0 53.10499 -0 -7.017679 -8.425793 20.16638 -1.75279 1.047241 3.426125 0.4872239 8.022687 -4.728151 3.49353 26.12262 3.479769 1.15343 -16.05245 7.72107 0.03270678 -14.00103 8.637071 89.86712 24.29006 -15.12739 -0 0 6.569891 -15.05358 10.05732 6.259356 4.766414 -17.20557 -2.991712 -87.4675 26.89466 8.38842 0 0 -12.846 2.793179 12.63216 8.618649
60.13616 104.8161 366.2973 3.164178 -11.34687 8.736854 3.248064 7.119485 3.772439 -0 13.21331 -0 -6.503297 -13.91518 -6.39645 -3.159374 -4.204042 -8.864318 -0 49.23956 -0 -6.472063 -8.087472 21.32165 -1.86463 1.375997 4.120464 0.2085379 7.957477 -3.952588 3.382921 26.20315 3.489379 1.202813 -16.27026 7.573979 -0.2265254 -15.33445 8.839129 88.47071 24.26224 -12.57489 -0 0 8.601668 -16.04821 9.593713 7.52368 4.818834 -16.55134 -2.830342 -89.58286 26.53304 11.65116 0 0 -9.948503 2.425209 12.76313 9.023015
60.77575 104.6927 371.7794 2.977221 -10.96526 7.738736 3.027304 11.58617 2.919653 -0 10.93775 -0 -6.822075 -14.76932 -5.3451 -2.56213 -9.835531 -8.769484 -0 42.20278 -0 -6.019941 -7.991475 22.24102 -1.843337 1.544157 4.634112 -0.08080603 7.75098 -3.210016 3.197452 26.1329 3.612461 1.2384 -16.58265 7.481349 -0.6562468 -16.71678 8.965157 87.07993 24.1242 -9.977596 -0 0 10.98807 -17.32583 9.104238 9.077471 5.050689 -15.91101 -2.615021 -91.51941 25.96746 14.83525 0 0 -7.26677 2.143865 12.86764 9.344871
